<mxfile host="app.diagrams.net" modified="2021-09-27T12:08:57.206Z" agent="5.0 (Windows NT 10.0; Win64; x64) AppleWebKit/537.36 (KHTML, like Gecko) Chrome/93.0.4577.82 Safari/537.36" etag="lfXe6FRrfw6hnSz-6xvi" version="15.3.5" type="github">
  <diagram id="JsaeOLvhmnCPcDTUaCLh" name="Page-1">
    <mxGraphModel dx="1117" dy="623" grid="1" gridSize="10" guides="1" tooltips="1" connect="1" arrows="1" fold="1" page="1" pageScale="1" pageWidth="850" pageHeight="1100" math="0" shadow="0">
      <root>
        <mxCell id="0" />
        <mxCell id="1" parent="0" />
        <mxCell id="be74UL4o69qkVuLR6L2u-33" value="" style="group" vertex="1" connectable="0" parent="1">
          <mxGeometry x="60" y="57.5" width="564.24" height="320" as="geometry" />
        </mxCell>
        <mxCell id="be74UL4o69qkVuLR6L2u-4" value="" style="shape=image;html=1;verticalAlign=top;verticalLabelPosition=bottom;labelBackgroundColor=#ffffff;imageAspect=0;aspect=fixed;image=https://cdn1.iconfinder.com/data/icons/project-management-8/500/officeworker-128.png;hachureGap=4;pointerEvents=0;" vertex="1" parent="be74UL4o69qkVuLR6L2u-33">
          <mxGeometry x="350" y="258.5" width="61.5" height="61.5" as="geometry" />
        </mxCell>
        <mxCell id="be74UL4o69qkVuLR6L2u-7" value="" style="shape=image;html=1;verticalAlign=top;verticalLabelPosition=bottom;labelBackgroundColor=#ffffff;imageAspect=0;aspect=fixed;image=https://cdn4.iconfinder.com/data/icons/multimedia-75/512/multimedia-12-128.png;hachureGap=4;pointerEvents=0;" vertex="1" parent="be74UL4o69qkVuLR6L2u-33">
          <mxGeometry x="135.76" y="252" width="68" height="68" as="geometry" />
        </mxCell>
        <mxCell id="be74UL4o69qkVuLR6L2u-10" value="" style="endArrow=none;dashed=1;html=1;strokeWidth=2;startSize=14;endSize=14;sourcePerimeterSpacing=8;targetPerimeterSpacing=8;strokeColor=#4D4D4D;rounded=1;" edge="1" parent="be74UL4o69qkVuLR6L2u-33">
          <mxGeometry width="50" height="50" relative="1" as="geometry">
            <mxPoint x="270" y="320" as="sourcePoint" />
            <mxPoint x="270" as="targetPoint" />
          </mxGeometry>
        </mxCell>
        <mxCell id="be74UL4o69qkVuLR6L2u-12" value="" style="shape=image;html=1;verticalAlign=top;verticalLabelPosition=bottom;labelBackgroundColor=#ffffff;imageAspect=0;aspect=fixed;image=https://cdn0.iconfinder.com/data/icons/eon-social-media-contact-info-2/32/user_people_person_users_man-128.png;hachureGap=4;pointerEvents=0;" vertex="1" parent="be74UL4o69qkVuLR6L2u-33">
          <mxGeometry x="140.76" y="53" width="58" height="58" as="geometry" />
        </mxCell>
        <mxCell id="be74UL4o69qkVuLR6L2u-14" value="" style="html=1;shadow=0;dashed=0;align=center;verticalAlign=middle;shape=mxgraph.arrows2.arrow;dy=0.6;dx=40;direction=south;notch=0;hachureGap=4;pointerEvents=0;fillColor=#CC0000;strokeColor=#CC0000;" vertex="1" parent="be74UL4o69qkVuLR6L2u-33">
          <mxGeometry x="154.57" y="122.5" width="30.38" height="100" as="geometry" />
        </mxCell>
        <mxCell id="be74UL4o69qkVuLR6L2u-17" value="" style="html=1;shadow=0;dashed=0;align=center;verticalAlign=middle;shape=mxgraph.arrows2.twoWayArrow;dy=0.65;dx=22;hachureGap=4;pointerEvents=0;strokeColor=#CC0000;fillColor=#CC0000;rotation=90;" vertex="1" parent="be74UL4o69qkVuLR6L2u-33">
          <mxGeometry x="329.94" y="152.5" width="100" height="40" as="geometry" />
        </mxCell>
        <mxCell id="be74UL4o69qkVuLR6L2u-21" value="" style="shape=image;html=1;verticalAlign=top;verticalLabelPosition=bottom;labelBackgroundColor=#ffffff;imageAspect=0;aspect=fixed;image=https://cdn4.iconfinder.com/data/icons/basic-ui-2-line/32/person-people-man-profile-human-128.png;hachureGap=4;pointerEvents=0;strokeColor=default;fillColor=#FFFFFF;" vertex="1" parent="be74UL4o69qkVuLR6L2u-33">
          <mxGeometry x="353.94" y="56" width="52" height="52" as="geometry" />
        </mxCell>
        <mxCell id="be74UL4o69qkVuLR6L2u-22" value="&lt;font face=&quot;黑体&quot;&gt;求职者&lt;/font&gt;" style="text;html=1;strokeColor=none;fillColor=none;align=center;verticalAlign=middle;whiteSpace=wrap;rounded=0;hachureGap=4;pointerEvents=0;" vertex="1" parent="be74UL4o69qkVuLR6L2u-33">
          <mxGeometry x="354.76" y="26" width="50.37" height="40" as="geometry" />
        </mxCell>
        <mxCell id="be74UL4o69qkVuLR6L2u-23" value="&lt;font face=&quot;黑体&quot;&gt;雇主&lt;/font&gt;" style="text;html=1;strokeColor=none;fillColor=none;align=center;verticalAlign=middle;whiteSpace=wrap;rounded=0;hachureGap=4;pointerEvents=0;" vertex="1" parent="be74UL4o69qkVuLR6L2u-33">
          <mxGeometry x="355.57" y="232.5" width="50.37" height="40" as="geometry" />
        </mxCell>
        <mxCell id="be74UL4o69qkVuLR6L2u-24" value="&lt;font face=&quot;黑体&quot;&gt;商品&lt;/font&gt;" style="text;html=1;strokeColor=none;fillColor=none;align=center;verticalAlign=middle;whiteSpace=wrap;rounded=0;hachureGap=4;pointerEvents=0;" vertex="1" parent="be74UL4o69qkVuLR6L2u-33">
          <mxGeometry x="144.57" y="232.5" width="50.37" height="40" as="geometry" />
        </mxCell>
        <mxCell id="be74UL4o69qkVuLR6L2u-25" value="&lt;font face=&quot;黑体&quot;&gt;顾客&lt;/font&gt;" style="text;html=1;strokeColor=none;fillColor=none;align=center;verticalAlign=middle;whiteSpace=wrap;rounded=0;hachureGap=4;pointerEvents=0;" vertex="1" parent="be74UL4o69qkVuLR6L2u-33">
          <mxGeometry x="144.57999999999998" y="26" width="50.37" height="40" as="geometry" />
        </mxCell>
        <mxCell id="be74UL4o69qkVuLR6L2u-27" value="&lt;font face=&quot;黑体&quot; style=&quot;font-size: 16px&quot;&gt;购物匹配过程&lt;/font&gt;" style="text;html=1;strokeColor=none;fillColor=none;align=center;verticalAlign=middle;whiteSpace=wrap;rounded=0;hachureGap=4;pointerEvents=0;" vertex="1" parent="be74UL4o69qkVuLR6L2u-33">
          <mxGeometry x="31.52" y="147.5" width="104.24" height="40" as="geometry" />
        </mxCell>
        <mxCell id="be74UL4o69qkVuLR6L2u-28" value="&lt;font face=&quot;黑体&quot; style=&quot;font-size: 16px&quot;&gt;招聘匹配过程&lt;/font&gt;" style="text;html=1;strokeColor=none;fillColor=none;align=center;verticalAlign=middle;whiteSpace=wrap;rounded=0;hachureGap=4;pointerEvents=0;" vertex="1" parent="be74UL4o69qkVuLR6L2u-33">
          <mxGeometry x="429.94" y="147.5" width="104.24" height="40" as="geometry" />
        </mxCell>
        <mxCell id="be74UL4o69qkVuLR6L2u-29" value="&lt;font face=&quot;黑体&quot; style=&quot;font-size: 12px&quot;&gt;单向模式&lt;/font&gt;" style="text;html=1;strokeColor=none;fillColor=none;align=center;verticalAlign=middle;whiteSpace=wrap;rounded=0;hachureGap=4;pointerEvents=0;" vertex="1" parent="be74UL4o69qkVuLR6L2u-33">
          <mxGeometry x="194.94" y="122.5" width="20" height="90" as="geometry" />
        </mxCell>
        <mxCell id="be74UL4o69qkVuLR6L2u-30" value="&lt;font face=&quot;黑体&quot;&gt;效率较高&lt;/font&gt;" style="text;html=1;strokeColor=none;fillColor=none;align=center;verticalAlign=middle;whiteSpace=wrap;rounded=0;hachureGap=4;pointerEvents=0;" vertex="1" parent="be74UL4o69qkVuLR6L2u-33">
          <mxGeometry x="214.94" y="122.5" width="20" height="90" as="geometry" />
        </mxCell>
        <mxCell id="be74UL4o69qkVuLR6L2u-31" value="&lt;font face=&quot;黑体&quot; style=&quot;font-size: 12px&quot;&gt;撮合较难&lt;/font&gt;" style="text;html=1;strokeColor=none;fillColor=none;align=center;verticalAlign=middle;whiteSpace=wrap;rounded=0;hachureGap=4;pointerEvents=0;" vertex="1" parent="be74UL4o69qkVuLR6L2u-33">
          <mxGeometry x="300" y="122.5" width="20" height="90" as="geometry" />
        </mxCell>
        <mxCell id="be74UL4o69qkVuLR6L2u-32" value="&lt;font face=&quot;黑体&quot;&gt;双向选择&lt;/font&gt;" style="text;html=1;strokeColor=none;fillColor=none;align=center;verticalAlign=middle;whiteSpace=wrap;rounded=0;hachureGap=4;pointerEvents=0;" vertex="1" parent="be74UL4o69qkVuLR6L2u-33">
          <mxGeometry x="320" y="122.5" width="20" height="90" as="geometry" />
        </mxCell>
      </root>
    </mxGraphModel>
  </diagram>
</mxfile>
